
<global>
amp_veltrack=0
ampeg_attack=0.01
ampeg_release=1.50
</global>

<group>
group_label=RR1_0-42
seq_length=4
seq_position=1
xf_cccurve=gain
xfin_hicc1=42
xfout_hicc1=84
xfout_locc1=42

<region>
end=48000
hivel=127
key=G6
lovel=0
offset=4021
sample=Violins1_staccato_PP_G6_RR1.opus
</region>

<region>
end=48000
hivel=127
key=G5
lovel=0
offset=3844
sample=Violins1_staccato_PP_G5_RR1.opus
</region>

<region>
end=48000
hivel=127
key=G4
lovel=0
offset=3504
sample=Violins1_staccato_PP_G4_RR1.opus
</region>

<region>
end=48000
hivel=127
key=G3
lovel=0
offset=5734
sample=Violins1_staccato_PP_G3_RR1.opus
</region>

<region>
end=48000
hivel=127
key=G#6
lovel=0
offset=4751
sample=Violins1_staccato_PP_G#6_RR1.opus
</region>

<region>
end=48000
hivel=127
key=G#5
lovel=0
offset=4752
sample=Violins1_staccato_PP_G#5_RR1.opus
</region>

<region>
end=48000
hivel=127
key=G#4
lovel=0
offset=4144
sample=Violins1_staccato_PP_G#4_RR1.opus
</region>

<region>
end=48000
hivel=127
key=G#3
lovel=0
offset=4679
sample=Violins1_staccato_PP_G#3_RR1.opus
</region>

<region>
end=48000
hivel=127
key=F6
lovel=0
offset=3211
sample=Violins1_staccato_PP_F6_RR1.opus
</region>

<region>
end=48000
hivel=127
key=F5
lovel=0
offset=3688
sample=Violins1_staccato_PP_F5_RR1.opus
</region>

<region>
end=48000
hivel=127
key=F4
lovel=0
offset=5066
sample=Violins1_staccato_PP_F4_RR1.opus
</region>

<region>
end=48000
hivel=127
key=F#6
lovel=0
offset=3421
sample=Violins1_staccato_PP_F#6_RR1.opus
</region>

<region>
end=48000
hivel=127
key=F#5
lovel=0
offset=4748
sample=Violins1_staccato_PP_F#5_RR1.opus
</region>

<region>
end=48000
hivel=127
key=F#4
lovel=0
offset=2486
sample=Violins1_staccato_PP_F#4_RR1.opus
</region>

<region>
end=48000
hivel=127
key=E6
lovel=0
offset=49
sample=Violins1_staccato_PP_E6_RR1.opus
</region>

<region>
end=48000
hivel=127
key=E5
lovel=0
offset=4953
sample=Violins1_staccato_PP_E5_RR1.opus
</region>

<region>
end=48000
hivel=127
key=E4
lovel=0
offset=3892
sample=Violins1_staccato_PP_E4_RR1.opus
</region>

<region>
end=48000
hivel=127
key=D6
lovel=0
offset=3590
sample=Violins1_staccato_PP_D6_RR1.opus
</region>

<region>
end=48000
hivel=127
key=D5
lovel=0
offset=2995
sample=Violins1_staccato_PP_D5_RR1.opus
</region>

<region>
end=48000
hivel=127
key=D4
lovel=0
offset=989
sample=Violins1_staccato_PP_D4_RR1.opus
</region>

<region>
end=48000
hivel=127
key=D#6
lovel=0
offset=5199
sample=Violins1_staccato_PP_D#6_RR1.opus
</region>

<region>
end=48000
hivel=127
key=D#5
lovel=0
offset=3621
sample=Violins1_staccato_PP_D#5_RR1.opus
</region>

<region>
end=48000
hivel=127
key=D#4
lovel=0
offset=3637
sample=Violins1_staccato_PP_D#4_RR1.opus
</region>

<region>
end=48000
hikey=E7
hivel=127
lokey=C7
lovel=0
offset=3441
pitch_keycenter=C7
sample=Violins1_staccato_PP_C7_RR1.opus
</region>

<region>
end=48000
hivel=127
key=C6
lovel=0
offset=3938
sample=Violins1_staccato_PP_C6_RR1.opus
</region>

<region>
end=48000
hivel=127
key=C5
lovel=0
offset=6132
sample=Violins1_staccato_PP_C5_RR1.opus
</region>

<region>
end=48000
hivel=127
key=C4
lovel=0
offset=2321
sample=Violins1_staccato_PP_C4_RR1.opus
</region>

<region>
end=48000
hivel=127
key=C#6
lovel=0
offset=3646
sample=Violins1_staccato_PP_C#6_RR1.opus
</region>

<region>
end=48000
hivel=127
key=C#5
lovel=0
offset=3484
sample=Violins1_staccato_PP_C#5_RR1.opus
</region>

<region>
end=48000
hivel=127
key=C#4
lovel=0
offset=1102
sample=Violins1_staccato_PP_C#4_RR1.opus
</region>

<region>
end=48000
hivel=127
key=B6
lovel=0
offset=5308
sample=Violins1_staccato_PP_B6_RR1.opus
</region>

<region>
end=48000
hivel=127
key=B5
lovel=0
offset=3573
sample=Violins1_staccato_PP_B5_RR1.opus
</region>

<region>
end=48000
hivel=127
key=B4
lovel=0
offset=5856
sample=Violins1_staccato_PP_B4_RR1.opus
</region>

<region>
end=48000
hivel=127
key=B3
lovel=0
offset=1697
sample=Violins1_staccato_PP_B3_RR1.opus
</region>

<region>
end=48000
hivel=127
key=A6
lovel=0
offset=4815
sample=Violins1_staccato_PP_A6_RR1.opus
</region>

<region>
end=48000
hivel=127
key=A5
lovel=0
offset=3997
sample=Violins1_staccato_PP_A5_RR1.opus
</region>

<region>
end=48000
hivel=127
key=A4
lovel=0
offset=1715
sample=Violins1_staccato_PP_A4_RR1.opus
</region>

<region>
end=48000
hivel=127
key=A3
lovel=0
offset=1596
sample=Violins1_staccato_PP_A3_RR1.opus
</region>

<region>
end=48000
hivel=127
key=A#6
lovel=0
offset=3049
sample=Violins1_staccato_PP_A#6_RR1.opus
</region>

<region>
end=48000
hivel=127
key=A#5
lovel=0
offset=3906
sample=Violins1_staccato_PP_A#5_RR1.opus
</region>

<region>
end=48000
hivel=127
key=A#4
lovel=0
offset=3339
sample=Violins1_staccato_PP_A#4_RR1.opus
</region>

<region>
end=48000
hivel=127
key=A#3
lovel=0
offset=4695
sample=Violins1_staccato_PP_A#3_RR1.opus
</region>
</group>

<group>
group_label=RR1_43-84
seq_length=4
seq_position=1
xf_cccurve=gain
xfin_hicc1=84
xfin_locc1=43
xfout_hicc1=125
xfout_locc1=84

<region>
end=48000
hivel=127
key=G6
lovel=0
offset=98
sample=Violins1_staccato_MF_G6_RR1.opus
</region>

<region>
end=48000
hivel=127
key=G5
lovel=0
sample=Violins1_staccato_MF_G5_RR1.opus
</region>

<region>
end=48000
hivel=127
key=G4
lovel=0
sample=Violins1_staccato_MF_G4_RR1.opus
</region>

<region>
end=48000
hivel=127
key=G3
lovel=0
sample=Violins1_staccato_MF_G3_RR1.opus
</region>

<region>
end=48000
hivel=127
key=G#6
lovel=0
offset=298
sample=Violins1_staccato_MF_G#6_RR1.opus
</region>

<region>
end=48000
hivel=127
key=g#5
lovel=0
offset=163
sample=Violins1_staccato_MF_G#5_RR1.opus
</region>

<region>
end=48000
hivel=127
key=G#4
lovel=0
sample=Violins1_staccato_MF_G#4_RR1.opus
</region>

<region>
end=48000
hivel=127
key=G#3
lovel=0
sample=Violins1_staccato_MF_G#3_RR1.opus
</region>

<region>
end=48000
hivel=127
key=F6
lovel=0
sample=Violins1_staccato_MF_F6_RR1.opus
</region>

<region>
end=48000
hivel=127
key=F5
lovel=0
sample=Violins1_staccato_MF_F5_RR1.opus
</region>

<region>
end=48000
hivel=127
key=F4
lovel=0
sample=Violins1_staccato_MF_F4_RR1.opus
</region>

<region>
end=48000
hivel=127
key=F#6
lovel=0
sample=Violins1_staccato_MF_F#6_RR1.opus
</region>

<region>
end=48000
hivel=127
key=F#5
lovel=0
sample=Violins1_staccato_MF_F#5_RR1.opus
</region>

<region>
end=48000
hivel=127
key=F#4
lovel=0
sample=Violins1_staccato_MF_F#4_RR1.opus
</region>

<region>
end=48000
hivel=127
key=E6
lovel=0
sample=Violins1_staccato_MF_E6_RR1.opus
</region>

<region>
end=48000
hivel=127
key=E5
lovel=0
sample=Violins1_staccato_MF_E5_RR1.opus
</region>

<region>
end=48000
hivel=127
key=E4
lovel=0
sample=Violins1_staccato_MF_E4_RR1.opus
</region>

<region>
end=48000
hivel=127
key=D6
lovel=0
offset=345
sample=Violins1_staccato_MF_D6_RR1.opus
</region>

<region>
end=48000
hivel=127
key=D5
lovel=0
offset=68
sample=Violins1_staccato_MF_D5_RR1.opus
</region>

<region>
end=48000
hivel=127
key=D4
lovel=0
sample=Violins1_staccato_MF_D4_RR1.opus
</region>

<region>
end=48000
hivel=127
key=D#6
lovel=0
sample=Violins1_staccato_MF_D#6_RR1.opus
</region>

<region>
end=48000
hivel=127
key=D#5
lovel=0
sample=Violins1_staccato_MF_D#5_RR1.opus
</region>

<region>
end=48000
hivel=127
key=D#4
lovel=0
sample=Violins1_staccato_MF_D#4_RR1.opus
</region>

<region>
end=48000
hikey=E7
hivel=127
lokey=C7
lovel=0
pitch_keycenter=C7
sample=Violins1_staccato_MF_C7_RR1.opus
</region>

<region>
end=48000
hivel=127
key=C6
lovel=0
sample=Violins1_staccato_MF_C6_RR1.opus
</region>

<region>
end=48000
hivel=127
key=C5
lovel=0
sample=Violins1_staccato_MF_C5_RR1.opus
</region>

<region>
end=48000
hivel=127
key=C4
lovel=0
sample=Violins1_staccato_MF_C4_RR1.opus
</region>

<region>
end=48000
hivel=127
key=C#6
lovel=0
sample=Violins1_staccato_MF_C#6_RR1.opus
</region>

<region>
end=48000
hivel=127
key=C#5
lovel=0
sample=Violins1_staccato_MF_C#5_RR1.opus
</region>

<region>
end=48000
hivel=127
key=C#4
lovel=0
sample=Violins1_staccato_MF_C#4_RR1.opus
</region>

<region>
end=48000
hivel=127
key=B6
lovel=0
sample=Violins1_staccato_MF_B6_RR1.opus
</region>

<region>
end=48000
hivel=127
key=B5
lovel=0
offset=184
sample=Violins1_staccato_MF_B5_RR1.opus
</region>

<region>
end=48000
hivel=127
key=B4
lovel=0
offset=305
sample=Violins1_staccato_MF_B4_RR1.opus
</region>

<region>
end=48000
hivel=127
key=B3
lovel=0
sample=Violins1_staccato_MF_B3_RR1.opus
</region>

<region>
end=48000
hivel=127
key=A6
lovel=0
sample=Violins1_staccato_MF_A6_RR1.opus
</region>

<region>
end=48000
hivel=127
key=A5
lovel=0
sample=Violins1_staccato_MF_A5_RR1.opus
</region>

<region>
end=48000
hivel=127
key=A4
lovel=0
sample=Violins1_staccato_MF_A4_RR1.opus
</region>

<region>
end=48000
hivel=127
key=A3
lovel=0
sample=Violins1_staccato_MF_A3_RR1.opus
</region>

<region>
end=48000
hivel=127
key=A#6
lovel=0
sample=Violins1_staccato_MF_A#6_RR1.opus
</region>

<region>
end=48000
hivel=127
key=A#5
lovel=0
sample=Violins1_staccato_MF_A#5_RR1.opus
</region>

<region>
end=48000
hivel=127
key=A#4
lovel=0
sample=Violins1_staccato_MF_A#4_RR1.opus
</region>

<region>
end=48000
hivel=127
key=A#3
lovel=0
offset=550
sample=Violins1_staccato_MF_A#3_RR1.opus
</region>
</group>

<group>
group_label=RR1_85-127
seq_length=4
seq_position=1
xf_cccurve=gain
xfin_hicc1=127
xfin_locc1=85
xfout_hicc1=127
xfout_locc1=127

<region>
end=47500
hivel=127
key=G6
lovel=0
sample=Violins1_staccato_FF_G6_RR1.opus
</region>

<region>
end=47500
hivel=127
key=G5
lovel=0
sample=Violins1_staccato_FF_G5_RR1.opus
</region>

<region>
end=47500
hivel=127
key=G4
lovel=0
sample=Violins1_staccato_FF_G4_RR1.opus
</region>

<region>
end=47500
hivel=127
key=g3
lovel=1
sample=Violins1_staccato_FF_G3_RR1.opus
</region>

<region>
end=47500
hivel=127
key=G#6
lovel=0
sample=Violins1_staccato_FF_G#6_RR1.opus
</region>

<region>
end=47500
hivel=127
key=G#5
lovel=0
sample=Violins1_staccato_FF_G#5_RR1.opus
</region>

<region>
end=47500
hivel=127
key=G#4
lovel=0
sample=Violins1_staccato_FF_G#4_RR1.opus
</region>

<region>
end=47500
hivel=127
key=G#3
lovel=0
sample=Violins1_staccato_FF_G#3_RR1.opus
</region>

<region>
end=47500
hivel=127
key=F6
lovel=0
sample=Violins1_staccato_FF_F6_RR1.opus
</region>

<region>
end=47500
hivel=127
key=F5
lovel=0
sample=Violins1_staccato_FF_F5_RR1.opus
</region>

<region>
end=47500
hivel=127
key=F4
lovel=0
sample=Violins1_staccato_FF_F4_RR1.opus
</region>

<region>
end=47500
hivel=127
key=F#6
lovel=0
sample=Violins1_staccato_FF_F#6_RR1.opus
</region>

<region>
end=47500
hivel=127
key=F#5
lovel=0
sample=Violins1_staccato_FF_F#5_RR1.opus
</region>

<region>
end=47500
hivel=127
key=F#4
lovel=0
sample=Violins1_staccato_FF_F#4_RR1.opus
</region>

<region>
end=47500
hivel=127
key=E6
lovel=0
sample=Violins1_staccato_FF_E6_RR1.opus
</region>

<region>
end=47500
hivel=127
key=E5
lovel=0
sample=Violins1_staccato_FF_E5_RR1.opus
</region>

<region>
end=47500
hivel=127
key=E4
lovel=0
sample=Violins1_staccato_FF_E4_RR1.opus
</region>

<region>
end=43972
hivel=127
key=D6
lovel=0
sample=Violins1_staccato_FF_D6_RR1.opus
</region>

<region>
end=47500
hivel=127
key=D5
lovel=0
sample=Violins1_staccato_FF_D5_RR1.opus
</region>

<region>
end=47500
hivel=127
key=D4
lovel=0
sample=Violins1_staccato_FF_D4_RR1.opus
</region>

<region>
end=47500
hivel=127
key=D#6
lovel=0
sample=Violins1_staccato_FF_D#6_RR1.opus
</region>

<region>
end=47500
hivel=127
key=D#5
lovel=0
sample=Violins1_staccato_FF_D#5_RR1.opus
</region>

<region>
end=47500
hivel=127
key=D#4
lovel=0
sample=Violins1_staccato_FF_D#4_RR1.opus
</region>

<region>
end=47500
hikey=E7
hivel=127
lokey=C7
lovel=0
pitch_keycenter=C7
sample=Violins1_staccato_FF_C7_RR1.opus
</region>

<region>
end=47500
hivel=127
key=C6
lovel=0
sample=Violins1_staccato_FF_C6_RR1.opus
</region>

<region>
end=47500
hivel=127
key=C5
lovel=0
sample=Violins1_staccato_FF_C5_RR1.opus
</region>

<region>
end=47500
hivel=127
key=C4
lovel=0
sample=Violins1_staccato_FF_C4_RR1.opus
</region>

<region>
end=47500
hivel=127
key=C#6
lovel=0
sample=Violins1_staccato_FF_C#6_RR1.opus
</region>

<region>
end=47500
hivel=127
key=C#5
lovel=0
sample=Violins1_staccato_FF_C#5_RR1.opus
</region>

<region>
end=47500
hivel=127
key=C#4
lovel=0
sample=Violins1_staccato_FF_C#4_RR1.opus
</region>

<region>
end=47500
hivel=127
key=B6
lovel=0
sample=Violins1_staccato_FF_B6_RR1.opus
</region>

<region>
end=47500
hivel=127
key=B5
lovel=0
sample=Violins1_staccato_FF_B5_RR1.opus
</region>

<region>
end=47500
hivel=127
key=B4
lovel=0
sample=Violins1_staccato_FF_B4_RR1.opus
</region>

<region>
end=47500
hivel=127
key=B3
lovel=0
sample=Violins1_staccato_FF_B3_RR1.opus
</region>

<region>
end=47500
hivel=127
key=A6
lovel=0
sample=Violins1_staccato_FF_A6_RR1.opus
</region>

<region>
end=47500
hivel=127
key=A5
lovel=0
sample=Violins1_staccato_FF_A5_RR1.opus
</region>

<region>
end=47500
hivel=127
key=A4
lovel=0
sample=Violins1_staccato_FF_A4_RR1.opus
</region>

<region>
end=47500
hivel=127
key=A3
lovel=0
sample=Violins1_staccato_FF_A3_RR1.opus
</region>

<region>
end=47500
hivel=127
key=A#6
lovel=0
sample=Violins1_staccato_FF_A#6_RR1.opus
</region>

<region>
end=47500
hivel=127
key=A#5
lovel=0
sample=Violins1_staccato_FF_A#5_RR1.opus
</region>

<region>
end=47500
hivel=127
key=A#4
lovel=0
sample=Violins1_staccato_FF_A#4_RR1.opus
</region>

<region>
end=47500
hivel=127
key=A#3
lovel=0
sample=Violins1_staccato_FF_A#3_RR1.opus
</region>
</group>

<group>
group_label=RR2_0-42
seq_length=4
seq_position=2
xf_cccurve=gain
xfin_hicc1=42
xfout_hicc1=84
xfout_locc1=42

<region>
end=48000
hivel=127
key=G6
lovel=0
offset=51
sample=Violins1_staccato_PP_G6_RR2.opus
</region>

<region>
end=48000
hivel=127
key=G5
lovel=0
offset=1300
sample=Violins1_staccato_PP_G5_RR2.opus
</region>

<region>
end=48000
hivel=127
key=G4
lovel=0
offset=685
sample=Violins1_staccato_PP_G4_RR2.opus
</region>

<region>
end=48000
hivel=127
key=G3
lovel=0
offset=5461
sample=Violins1_staccato_PP_G3_RR2.opus
</region>

<region>
end=48000
hivel=127
key=G#6
lovel=0
offset=1921
sample=Violins1_staccato_PP_G#6_RR2.opus
</region>

<region>
end=48000
hivel=127
key=G#5
lovel=0
offset=598
sample=Violins1_staccato_PP_G#5_RR2.opus
</region>

<region>
end=48000
hivel=127
key=G#4
lovel=0
offset=444
sample=Violins1_staccato_PP_G#4_RR2.opus
</region>

<region>
end=48000
hivel=127
key=G#3
lovel=0
offset=2433
sample=Violins1_staccato_PP_G#3_RR2.opus
</region>

<region>
end=48000
hivel=127
key=F6
lovel=0
offset=991
sample=Violins1_staccato_PP_F6_RR2.opus
</region>

<region>
end=48000
hivel=127
key=F5
lovel=0
offset=1791
sample=Violins1_staccato_PP_F5_RR2.opus
</region>

<region>
end=48000
hivel=127
key=F4
lovel=0
offset=1978
sample=Violins1_staccato_PP_F4_RR2.opus
</region>

<region>
end=48000
hivel=127
key=F#6
lovel=0
offset=1812
sample=Violins1_staccato_PP_F#6_RR2.opus
</region>

<region>
end=48000
hivel=127
key=F#5
lovel=0
offset=2112
sample=Violins1_staccato_PP_F#5_RR2.opus
</region>

<region>
end=48000
hivel=127
key=F#4
lovel=0
offset=1083
sample=Violins1_staccato_PP_F#4_RR2.opus
</region>

<region>
end=48000
hivel=127
key=E6
lovel=0
sample=Violins1_staccato_PP_E6_RR2.opus
</region>

<region>
end=48000
hivel=127
key=E5
lovel=0
offset=2769
sample=Violins1_staccato_PP_E5_RR2.opus
</region>

<region>
end=48000
hivel=127
key=E4
lovel=0
sample=Violins1_staccato_PP_E4_RR2.opus
</region>

<region>
end=48000
hivel=127
key=D6
lovel=0
offset=2854
sample=Violins1_staccato_PP_D6_RR2.opus
</region>

<region>
end=48000
hivel=127
key=D5
lovel=0
offset=1115
sample=Violins1_staccato_PP_D5_RR2.opus
</region>

<region>
end=48000
hivel=127
key=D4
lovel=0
offset=892
sample=Violins1_staccato_PP_D4_RR2.opus
</region>

<region>
end=48000
hivel=127
key=D#6
lovel=0
offset=2145
sample=Violins1_staccato_PP_D#6_RR2.opus
</region>

<region>
end=48000
hivel=127
key=D#5
lovel=0
offset=1083
sample=Violins1_staccato_PP_D#5_RR2.opus
</region>

<region>
end=48000
hivel=127
key=D#4
lovel=0
offset=2638
sample=Violins1_staccato_PP_D#4_RR2.opus
</region>

<region>
end=48000
hikey=E7
hivel=127
lokey=C7
lovel=0
offset=622
pitch_keycenter=C7
sample=Violins1_staccato_PP_C7_RR2.opus
</region>

<region>
end=48000
hivel=127
key=C6
lovel=0
sample=Violins1_staccato_PP_C6_RR2.opus
</region>

<region>
end=48000
hivel=127
key=C5
lovel=0
offset=2002
sample=Violins1_staccato_PP_C5_RR2.opus
</region>

<region>
end=48000
hivel=127
key=C4
lovel=0
offset=29
sample=Violins1_staccato_PP_C4_RR2.opus
</region>

<region>
end=48000
hivel=127
key=C#6
lovel=0
offset=845
sample=Violins1_staccato_PP_C#6_RR2.opus
</region>

<region>
end=48000
hivel=127
key=C#5
lovel=0
offset=1828
sample=Violins1_staccato_PP_C#5_RR2.opus
</region>

<region>
end=48000
hivel=127
key=C#4
lovel=0
offset=163
sample=Violins1_staccato_PP_C#4_RR2.opus
</region>

<region>
end=48000
hivel=127
key=B6
lovel=0
offset=953
sample=Violins1_staccato_PP_B6_RR2.opus
</region>

<region>
end=48000
hivel=127
key=B5
lovel=0
offset=2169
sample=Violins1_staccato_PP_B5_RR2.opus
</region>

<region>
end=48000
hivel=127
key=B4
lovel=0
offset=598
sample=Violins1_staccato_PP_B4_RR2.opus
</region>

<region>
end=48000
hivel=127
key=B3
lovel=0
sample=Violins1_staccato_PP_B3_RR2.opus
</region>

<region>
end=48000
hivel=127
key=A6
lovel=0
offset=571
sample=Violins1_staccato_PP_A6_RR2.opus
</region>

<region>
end=48000
hivel=127
key=A5
lovel=0
offset=2869
sample=Violins1_staccato_PP_A5_RR2.opus
</region>

<region>
end=48000
hivel=127
key=A4
lovel=0
offset=1477
sample=Violins1_staccato_PP_A4_RR2.opus
</region>

<region>
end=48000
hivel=127
key=A3
lovel=0
sample=Violins1_staccato_PP_A3_RR2.opus
</region>

<region>
end=48000
hivel=127
key=A#6
lovel=0
sample=Violins1_staccato_PP_A#6_RR2.opus
</region>

<region>
end=48000
hivel=127
key=A#5
lovel=0
offset=1905
sample=Violins1_staccato_PP_A#5_RR2.opus
</region>

<region>
end=48000
hivel=127
key=A#4
lovel=0
sample=Violins1_staccato_PP_A#4_RR2.opus
</region>

<region>
end=48000
hivel=127
key=A#3
lovel=0
sample=Violins1_staccato_PP_A#3_RR2.opus
</region>
</group>

<group>
group_label=RR2_43-84
seq_length=4
seq_position=2
xf_cccurve=gain
xfin_hicc1=84
xfin_locc1=43
xfout_hicc1=125
xfout_locc1=84

<region>
hivel=127
key=G6
lovel=0
offset=113
sample=Violins1_staccato_MF_G6_RR2.opus
</region>

<region>
hivel=127
key=G5
lovel=0
offset=449
sample=Violins1_staccato_MF_G5_RR2.opus
</region>

<region>
hivel=127
key=G4
lovel=0
offset=4167
sample=Violins1_staccato_MF_G4_RR2.opus
</region>

<region>
hivel=127
key=G3
lovel=0
offset=3033
sample=Violins1_staccato_MF_G3_RR2.opus
</region>

<region>
hivel=127
key=G#6
lovel=0
offset=994
sample=Violins1_staccato_MF_G#6_RR2.opus
</region>

<region>
hivel=127
key=G#5
lovel=0
offset=676
sample=Violins1_staccato_MF_G#5_RR2.opus
</region>

<region>
hivel=127
key=G#4
lovel=0
offset=952
sample=Violins1_staccato_MF_G#4_RR2.opus
</region>

<region>
hivel=127
key=G#3
lovel=0
sample=Violins1_staccato_MF_G#3_RR2.opus
</region>

<region>
hivel=127
key=F6
lovel=0
offset=785
sample=Violins1_staccato_MF_F6_RR2.opus
</region>

<region>
hivel=127
key=F5
lovel=0
offset=1008
sample=Violins1_staccato_MF_F5_RR2.opus
</region>

<region>
hivel=127
key=F4
lovel=0
offset=552
sample=Violins1_staccato_MF_F4_RR2.opus
</region>

<region>
hivel=127
key=F#6
lovel=0
offset=633
sample=Violins1_staccato_MF_F#6_RR2.opus
</region>

<region>
hivel=127
key=F#5
lovel=0
offset=1079
sample=Violins1_staccato_MF_F#5_RR2.opus
</region>

<region>
hivel=127
key=F#4
lovel=0
offset=687
sample=Violins1_staccato_MF_F#4_RR2.opus
</region>

<region>
hivel=127
key=E6
lovel=0
offset=1448
sample=Violins1_staccato_MF_E6_RR2.opus
</region>

<region>
hivel=127
key=e5
lovel=0
offset=556
sample=Violins1_staccato_MF_E5_RR2.opus
</region>

<region>
hivel=127
key=E4
lovel=0
offset=456
sample=Violins1_staccato_MF_E4_RR2.opus
</region>

<region>
hivel=127
key=D6
lovel=0
offset=345
sample=Violins1_staccato_MF_D6_RR2.opus
</region>

<region>
hivel=127
key=D5
lovel=0
sample=Violins1_staccato_MF_D5_RR2.opus
</region>

<region>
hivel=127
key=D4
lovel=0
sample=Violins1_staccato_MF_D4_RR2.opus
</region>

<region>
hivel=127
key=D#6
lovel=0
offset=760
sample=Violins1_staccato_MF_D#6_RR2.opus
</region>

<region>
hivel=127
key=D#5
lovel=0
offset=496
sample=Violins1_staccato_MF_D#5_RR2.opus
</region>

<region>
hivel=127
key=D#4
lovel=0
offset=365
sample=Violins1_staccato_MF_D#4_RR2.opus
</region>

<region>
hikey=E7
hivel=127
lokey=C7
lovel=0
offset=817
pitch_keycenter=C7
sample=Violins1_staccato_MF_C7_RR2.opus
</region>

<region>
hivel=127
key=C6
lovel=0
offset=177
sample=Violins1_staccato_MF_C6_RR2.opus
</region>

<region>
hivel=127
key=C5
lovel=0
offset=1043
sample=Violins1_staccato_MF_C5_RR2.opus
</region>

<region>
hivel=127
key=C4
lovel=0
sample=Violins1_staccato_MF_C4_RR2.opus
</region>

<region>
hivel=127
key=C#6
lovel=0
offset=446
sample=Violins1_staccato_MF_C#6_RR2.opus
</region>

<region>
hivel=127
key=C#5
lovel=0
sample=Violins1_staccato_MF_C#5_RR2.opus
</region>

<region>
hivel=127
key=C#4
lovel=0
sample=Violins1_staccato_MF_C#4_RR2.opus
</region>

<region>
hivel=127
key=B6
lovel=0
offset=707
sample=Violins1_staccato_MF_B6_RR2.opus
</region>

<region>
hivel=127
key=B5
lovel=0
offset=441
sample=Violins1_staccato_MF_B5_RR2.opus
</region>

<region>
hivel=127
key=B4
lovel=0
sample=Violins1_staccato_MF_B4_RR2.opus
</region>

<region>
hivel=127
key=B3
lovel=0
sample=Violins1_staccato_MF_B3_RR2.opus
</region>

<region>
hivel=127
key=A6
lovel=0
sample=Violins1_staccato_MF_A6_RR2.opus
</region>

<region>
hivel=127
key=A5
lovel=0
offset=770
sample=Violins1_staccato_MF_A5_RR2.opus
</region>

<region>
hivel=127
key=A4
lovel=0
sample=Violins1_staccato_MF_A4_RR2.opus
</region>

<region>
hivel=127
key=A3
lovel=0
offset=269
sample=Violins1_staccato_MF_A3_RR2.opus
</region>

<region>
hivel=127
key=A#6
lovel=0
offset=1045
sample=Violins1_staccato_MF_A#6_RR2.opus
</region>

<region>
hivel=127
key=A#5
lovel=0
offset=614
sample=Violins1_staccato_MF_A#5_RR2.opus
</region>

<region>
hivel=127
key=A#4
lovel=0
offset=695
sample=Violins1_staccato_MF_A#4_RR2.opus
</region>

<region>
hivel=127
key=A#3
lovel=0
offset=828
sample=Violins1_staccato_MF_A#3_RR2.opus
</region>
</group>

<group>
group_label=RR2_85-127
seq_length=4
seq_position=2
xf_cccurve=gain
xfin_hicc1=127
xfin_locc1=85
xfout_hicc1=127
xfout_locc1=127

<region>
hivel=127
key=G6
lovel=0
sample=Violins1_staccato_FF_G6_RR2.opus
</region>

<region>
hivel=127
key=G5
lovel=0
sample=Violins1_staccato_FF_G5_RR2.opus
</region>

<region>
hivel=127
key=G4
lovel=0
sample=Violins1_staccato_FF_G4_RR2.opus
</region>

<region>
hivel=127
key=G3
lovel=0
sample=Violins1_staccato_FF_G3_RR2.opus
</region>

<region>
hivel=127
key=G#6
lovel=0
sample=Violins1_staccato_FF_G#6_RR2.opus
</region>

<region>
hivel=127
key=G#5
lovel=0
sample=Violins1_staccato_FF_G#5_RR2.opus
</region>

<region>
hivel=127
key=G#4
lovel=0
sample=Violins1_staccato_FF_G#4_RR2.opus
</region>

<region>
hivel=127
key=G#3
lovel=0
sample=Violins1_staccato_FF_G#3_RR2.opus
</region>

<region>
hivel=127
key=F6
lovel=0
sample=Violins1_staccato_FF_F6_RR2.opus
</region>

<region>
hivel=127
key=F5
lovel=0
sample=Violins1_staccato_FF_F5_RR2.opus
</region>

<region>
hivel=127
key=F4
lovel=0
sample=Violins1_staccato_FF_F4_RR2.opus
</region>

<region>
hivel=127
key=F#6
lovel=0
sample=Violins1_staccato_FF_F#6_RR2.opus
</region>

<region>
hivel=127
key=F#5
lovel=0
sample=Violins1_staccato_FF_F#5_RR2.opus
</region>

<region>
hivel=127
key=F#4
lovel=0
sample=Violins1_staccato_FF_F#4_RR2.opus
</region>

<region>
hivel=127
key=E6
lovel=0
sample=Violins1_staccato_FF_E6_RR2.opus
</region>

<region>
hivel=127
key=E5
lovel=0
sample=Violins1_staccato_FF_E5_RR2.opus
</region>

<region>
hivel=127
key=E4
lovel=0
sample=Violins1_staccato_FF_E4_RR2.opus
</region>

<region>
hivel=127
key=D6
lovel=0
sample=Violins1_staccato_FF_D6_RR2.opus
</region>

<region>
hivel=127
key=D5
lovel=0
sample=Violins1_staccato_FF_D5_RR2.opus
</region>

<region>
hivel=127
key=D4
lovel=0
sample=Violins1_staccato_FF_D4_RR2.opus
</region>

<region>
hivel=127
key=D#6
lovel=0
sample=Violins1_staccato_FF_D#6_RR2.opus
</region>

<region>
hivel=127
key=D#5
lovel=0
sample=Violins1_staccato_FF_D#5_RR2.opus
</region>

<region>
hivel=127
key=D#4
lovel=0
sample=Violins1_staccato_FF_D#4_RR2.opus
</region>

<region>
hikey=E7
hivel=127
lokey=C7
lovel=0
pitch_keycenter=C7
sample=Violins1_staccato_FF_C7_RR2.opus
</region>

<region>
hivel=127
key=C6
lovel=0
sample=Violins1_staccato_FF_C6_RR2.opus
</region>

<region>
hivel=127
key=C5
lovel=0
sample=Violins1_staccato_FF_C5_RR2.opus
</region>

<region>
hivel=127
key=C4
lovel=0
sample=Violins1_staccato_FF_C4_RR2.opus
</region>

<region>
hivel=127
key=C#6
lovel=0
sample=Violins1_staccato_FF_C#6_RR2.opus
</region>

<region>
hivel=127
key=C#5
lovel=0
sample=Violins1_staccato_FF_C#5_RR2.opus
</region>

<region>
hivel=127
key=C#4
lovel=0
sample=Violins1_staccato_FF_C#4_RR2.opus
</region>

<region>
hivel=127
key=B6
lovel=0
sample=Violins1_staccato_FF_B6_RR2.opus
</region>

<region>
hivel=127
key=B5
lovel=0
sample=Violins1_staccato_FF_B5_RR2.opus
</region>

<region>
hivel=127
key=B4
lovel=0
sample=Violins1_staccato_FF_B4_RR2.opus
</region>

<region>
hivel=127
key=B3
lovel=0
sample=Violins1_staccato_FF_B3_RR2.opus
</region>

<region>
hivel=127
key=A6
lovel=0
sample=Violins1_staccato_FF_A6_RR2.opus
</region>

<region>
hivel=127
key=A5
lovel=0
sample=Violins1_staccato_FF_A5_RR2.opus
</region>

<region>
hivel=127
key=A4
lovel=0
sample=Violins1_staccato_FF_A4_RR2.opus
</region>

<region>
hivel=127
key=A3
lovel=0
sample=Violins1_staccato_FF_A3_RR2.opus
</region>

<region>
hivel=127
key=A#6
lovel=0
sample=Violins1_staccato_FF_A#6_RR2.opus
</region>

<region>
hivel=127
key=A#5
lovel=0
sample=Violins1_staccato_FF_A#5_RR2.opus
</region>

<region>
hivel=127
key=A#4
lovel=0
sample=Violins1_staccato_FF_A#4_RR2.opus
</region>

<region>
hivel=127
key=A#3
lovel=0
sample=Violins1_staccato_FF_A#3_RR2.opus
</region>
</group>

<group>
group_label=RR3_0-42
seq_length=4
seq_position=3
xf_cccurve=gain
xfin_hicc1=42
xfout_hicc1=84
xfout_locc1=42

<region>
end=48000
hivel=127
key=G6
lovel=0
offset=207
sample=Violins1_staccato_PP_G6_RR3.opus
</region>

<region>
end=48000
hivel=127
key=G5
lovel=0
offset=1583
sample=Violins1_staccato_PP_G5_RR3.opus
</region>

<region>
end=48000
hivel=127
key=G4
lovel=0
offset=444
sample=Violins1_staccato_PP_G4_RR3.opus
</region>

<region>
end=48000
hivel=127
key=G3
lovel=0
offset=5905
sample=Violins1_staccato_PP_G3_RR3.opus
</region>

<region>
end=48000
hivel=127
key=G#6
lovel=0
offset=1072
sample=Violins1_staccato_PP_G#6_RR3.opus
</region>

<region>
end=48000
hivel=127
key=G#5
lovel=0
offset=1085
sample=Violins1_staccato_PP_G#5_RR3.opus
</region>

<region>
end=48000
hivel=127
key=G#4
lovel=0
sample=Violins1_staccato_PP_G#4_RR3.opus
</region>

<region>
end=48000
hivel=127
key=G#3
lovel=0
offset=2382
sample=Violins1_staccato_PP_G#3_RR3.opus
</region>

<region>
end=48000
hivel=127
key=F6
lovel=0
offset=995
sample=Violins1_staccato_PP_F6_RR3.opus
</region>

<region>
end=48000
hivel=127
key=F5
lovel=0
offset=2158
sample=Violins1_staccato_PP_F5_RR3.opus
</region>

<region>
end=48000
hivel=127
key=F4
lovel=0
sample=Violins1_staccato_PP_F4_RR3.opus
</region>

<region>
end=48000
hivel=127
key=F#6
lovel=0
offset=2036
sample=Violins1_staccato_PP_F#6_RR3.opus
</region>

<region>
end=48000
hivel=127
key=F#5
lovel=0
offset=1752
sample=Violins1_staccato_PP_F#5_RR3.opus
</region>

<region>
end=48000
hivel=127
key=F#4
lovel=0
offset=1112
sample=Violins1_staccato_PP_F#4_RR3.opus
</region>

<region>
end=48000
hivel=127
key=E6
lovel=0
offset=2383
sample=Violins1_staccato_PP_E6_RR3.opus
</region>

<region>
end=48000
hivel=127
key=E5
lovel=0
sample=Violins1_staccato_PP_E5_RR3.opus
</region>

<region>
end=48000
hivel=127
key=E4
lovel=0
offset=1919
sample=Violins1_staccato_PP_E4_RR3.opus
</region>

<region>
end=48000
hivel=127
key=D6
lovel=0
offset=2841
sample=Violins1_staccato_PP_D6_RR3.opus
</region>

<region>
end=48000
hivel=127
key=D5
lovel=0
offset=967
sample=Violins1_staccato_PP_D5_RR3.opus
</region>

<region>
end=48000
hivel=127
key=D4
lovel=0
offset=1053
sample=Violins1_staccato_PP_D4_RR3.opus
</region>

<region>
end=48000
hivel=127
key=D#6
lovel=0
offset=2661
sample=Violins1_staccato_PP_D#6_RR3.opus
</region>

<region>
end=48000
hivel=127
key=D#5
lovel=0
offset=936
sample=Violins1_staccato_PP_D#5_RR3.opus
</region>

<region>
end=48000
hivel=127
key=D#4
lovel=0
offset=459
sample=Violins1_staccato_PP_D#4_RR3.opus
</region>

<region>
end=48000
hikey=E7
hivel=127
lokey=C7
lovel=0
offset=990
pitch_keycenter=C7
sample=Violins1_staccato_PP_C7_RR3.opus
</region>

<region>
end=48000
hivel=127
key=C6
lovel=0
offset=89
sample=Violins1_staccato_PP_C6_RR3.opus
</region>

<region>
end=48000
hivel=127
key=C5
lovel=0
offset=2799
sample=Violins1_staccato_PP_C5_RR3.opus
</region>

<region>
end=48000
hivel=127
key=C4
lovel=0
offset=505
sample=Violins1_staccato_PP_C4_RR3.opus
</region>

<region>
end=48000
hivel=127
key=C#6
lovel=0
offset=787
sample=Violins1_staccato_PP_C#6_RR3.opus
</region>

<region>
end=48000
hivel=127
key=C#5
lovel=0
offset=3056
sample=Violins1_staccato_PP_C#5_RR3.opus
</region>

<region>
end=48000
hivel=127
key=C#4
lovel=0
offset=2162
sample=Violins1_staccato_PP_C#4_RR3.opus
</region>

<region>
end=48000
hivel=127
key=B6
lovel=0
offset=758
sample=Violins1_staccato_PP_B6_RR3.opus
</region>

<region>
end=48000
hivel=127
key=B5
lovel=0
offset=940
sample=Violins1_staccato_PP_B5_RR3.opus
</region>

<region>
end=48000
hivel=127
key=B4
lovel=0
sample=Violins1_staccato_PP_B4_RR3.opus
</region>

<region>
end=48000
hivel=127
key=B3
lovel=0
sample=Violins1_staccato_PP_B3_RR3.opus
</region>

<region>
end=48000
hivel=127
key=A6
lovel=0
offset=2265
sample=Violins1_staccato_PP_A6_RR3.opus
</region>

<region>
end=48000
hivel=127
key=A5
lovel=0
offset=2436
sample=Violins1_staccato_PP_A5_RR3.opus
</region>

<region>
end=48000
hivel=127
key=A4
lovel=0
offset=1826
sample=Violins1_staccato_PP_A4_RR3.opus
</region>

<region>
end=48000
hivel=127
key=A3
lovel=0
offset=406
sample=Violins1_staccato_PP_A3_RR3.opus
</region>

<region>
end=48000
hivel=127
key=A#6
lovel=0
offset=2418
sample=Violins1_staccato_PP_A#6_RR3.opus
</region>

<region>
end=48000
hivel=127
key=A#5
lovel=0
offset=1520
sample=Violins1_staccato_PP_A#5_RR3.opus
</region>

<region>
end=48000
hivel=127
key=A#4
lovel=0
offset=166
sample=Violins1_staccato_PP_A#4_RR3.opus
</region>

<region>
end=48000
hivel=127
key=A#3
lovel=0
offset=2470
sample=Violins1_staccato_PP_A#3_RR3.opus
</region>
</group>

<group>
group_label=RR3_43-84
seq_length=4
seq_position=3
xf_cccurve=gain
xfin_hicc1=84
xfin_locc1=43
xfout_hicc1=125
xfout_locc1=84

<region>
hivel=127
key=G6
lovel=0
offset=4471
sample=Violins1_staccato_MF_G6_RR3.opus
</region>

<region>
hivel=127
key=G5
lovel=0
offset=1532
sample=Violins1_staccato_MF_G5_RR3.opus
</region>

<region>
hivel=127
key=G4
lovel=0
offset=2235
sample=Violins1_staccato_MF_G4_RR3.opus
</region>

<region>
hivel=127
key=G3
lovel=0
offset=2151
sample=Violins1_staccato_MF_G3_RR3.opus
</region>

<region>
hivel=127
key=G#6
lovel=0
offset=2014
sample=Violins1_staccato_MF_G#6_RR3.opus
</region>

<region>
hivel=127
key=G#5
lovel=0
offset=1227
sample=Violins1_staccato_MF_G#5_RR3.opus
</region>

<region>
hivel=127
key=G#4
lovel=0
offset=1055
sample=Violins1_staccato_MF_G#4_RR3.opus
</region>

<region>
hivel=127
key=G#3
lovel=0
offset=918
sample=Violins1_staccato_MF_G#3_RR3.opus
</region>

<region>
hivel=127
key=F6
lovel=0
offset=3467
sample=Violins1_staccato_MF_F6_RR3.opus
</region>

<region>
hivel=127
key=F5
lovel=0
offset=2060
sample=Violins1_staccato_MF_F5_RR3.opus
</region>

<region>
hivel=127
key=F4
lovel=0
offset=1919
sample=Violins1_staccato_MF_F4_RR3.opus
</region>

<region>
hivel=127
key=F#6
lovel=0
offset=2478
sample=Violins1_staccato_MF_F#6_RR3.opus
</region>

<region>
hivel=127
key=F#5
lovel=0
offset=1051
sample=Violins1_staccato_MF_F#5_RR3.opus
</region>

<region>
hivel=127
key=F#4
lovel=0
offset=980
sample=Violins1_staccato_MF_F#4_RR3.opus
</region>

<region>
hivel=127
key=E6
lovel=0
offset=1376
sample=Violins1_staccato_MF_E6_RR3.opus
</region>

<region>
hivel=127
key=E5
lovel=0
offset=2186
sample=Violins1_staccato_MF_E5_RR3.opus
</region>

<region>
hivel=127
key=E4
lovel=0
offset=1139
sample=Violins1_staccato_MF_E4_RR3.opus
</region>

<region>
hivel=127
key=D6
lovel=0
offset=3148
sample=Violins1_staccato_MF_D6_RR3.opus
</region>

<region>
hivel=127
key=D5
lovel=0
offset=5411
sample=Violins1_staccato_MF_D5_RR3.opus
</region>

<region>
hivel=127
key=D4
lovel=0
offset=2415
sample=Violins1_staccato_MF_D4_RR3.opus
</region>

<region>
hivel=127
key=D#6
lovel=0
offset=2595
sample=Violins1_staccato_MF_D#6_RR3.opus
</region>

<region>
hivel=127
key=D#5
lovel=0
offset=1468
sample=Violins1_staccato_MF_D#5_RR3.opus
</region>

<region>
hivel=127
key=D#4
lovel=0
offset=1279
sample=Violins1_staccato_MF_D#4_RR3.opus
</region>

<region>
hikey=E7
hivel=127
lokey=C7
lovel=0
offset=2149
pitch_keycenter=C7
sample=Violins1_staccato_MF_C7_RR3.opus
</region>

<region>
hivel=127
key=C6
lovel=0
offset=2696
sample=Violins1_staccato_MF_C6_RR3.opus
</region>

<region>
hivel=127
key=C5
lovel=0
offset=1693
sample=Violins1_staccato_MF_C5_RR3.opus
</region>

<region>
hivel=127
key=C4
lovel=0
offset=1280
sample=Violins1_staccato_MF_C4_RR3.opus
</region>

<region>
hivel=127
key=C#6
lovel=0
offset=2053
sample=Violins1_staccato_MF_C#6_RR3.opus
</region>

<region>
hivel=127
key=C#5
lovel=0
offset=1057
sample=Violins1_staccato_MF_C#5_RR3.opus
</region>

<region>
hivel=127
key=C#4
lovel=0
offset=2102
sample=Violins1_staccato_MF_C#4_RR3.opus
</region>

<region>
hivel=127
key=B6
lovel=0
offset=1845
sample=Violins1_staccato_MF_B6_RR3.opus
</region>

<region>
hivel=127
key=B5
lovel=0
offset=1408
sample=Violins1_staccato_MF_B5_RR3.opus
</region>

<region>
hivel=127
key=B4
lovel=0
offset=2384
sample=Violins1_staccato_MF_B4_RR3.opus
</region>

<region>
hivel=127
key=B3
lovel=0
offset=1964
sample=Violins1_staccato_MF_B3_RR3.opus
</region>

<region>
hivel=127
key=A6
lovel=0
offset=761
sample=Violins1_staccato_MF_A6_RR3.opus
</region>

<region>
hivel=127
key=A5
lovel=0
offset=2209
sample=Violins1_staccato_MF_A5_RR3.opus
</region>

<region>
hivel=127
key=A4
lovel=0
offset=2966
sample=Violins1_staccato_MF_A4_RR3.opus
</region>

<region>
hivel=127
key=A3
lovel=0
offset=1177
sample=Violins1_staccato_MF_A3_RR3.opus
</region>

<region>
hivel=127
key=A#6
lovel=0
offset=619
sample=Violins1_staccato_MF_A#6_RR3.opus
</region>

<region>
hivel=127
key=A#5
lovel=0
offset=1475
sample=Violins1_staccato_MF_A#5_RR3.opus
</region>

<region>
hivel=127
key=A#4
lovel=0
offset=1525
sample=Violins1_staccato_MF_A#4_RR3.opus
</region>

<region>
hivel=127
key=A#3
lovel=0
offset=1768
sample=Violins1_staccato_MF_A#3_RR3.opus
</region>
</group>

<group>
group_label=RR3_85-127
seq_length=4
seq_position=3
xf_cccurve=gain
xfin_hicc1=127
xfin_locc1=85
xfout_hicc1=127
xfout_locc1=127

<region>
hivel=127
key=G6
lovel=0
sample=Violins1_staccato_FF_G6_RR3.opus
</region>

<region>
hivel=127
key=G5
lovel=0
sample=Violins1_staccato_FF_G5_RR3.opus
</region>

<region>
hivel=127
key=G4
lovel=0
sample=Violins1_staccato_FF_G4_RR3.opus
</region>

<region>
hivel=127
key=G3
lovel=0
sample=Violins1_staccato_FF_G3_RR3.opus
</region>

<region>
hivel=127
key=G#6
lovel=0
sample=Violins1_staccato_FF_G#6_RR3.opus
</region>

<region>
hivel=127
key=G#5
lovel=0
sample=Violins1_staccato_FF_G#5_RR3.opus
</region>

<region>
hivel=127
key=G#4
lovel=0
sample=Violins1_staccato_FF_G#4_RR3.opus
</region>

<region>
hivel=127
key=G#3
lovel=0
sample=Violins1_staccato_FF_G#3_RR3.opus
</region>

<region>
hivel=127
key=F6
lovel=0
sample=Violins1_staccato_FF_F6_RR3.opus
</region>

<region>
hivel=127
key=F5
lovel=0
sample=Violins1_staccato_FF_F5_RR3.opus
</region>

<region>
hivel=127
key=F4
lovel=0
sample=Violins1_staccato_FF_F4_RR3.opus
</region>

<region>
hivel=127
key=F#6
lovel=0
sample=Violins1_staccato_FF_F#6_RR3.opus
</region>

<region>
hivel=127
key=F#5
lovel=0
sample=Violins1_staccato_FF_F#5_RR3.opus
</region>

<region>
hivel=127
key=F#4
lovel=0
sample=Violins1_staccato_FF_F#4_RR3.opus
</region>

<region>
hivel=127
key=E6
lovel=0
sample=Violins1_staccato_FF_E6_RR3.opus
</region>

<region>
hivel=127
key=E5
lovel=0
sample=Violins1_staccato_FF_E5_RR3.opus
</region>

<region>
hivel=127
key=E4
lovel=0
sample=Violins1_staccato_FF_E4_RR3.opus
</region>

<region>
hivel=127
key=D6
lovel=0
sample=Violins1_staccato_FF_D6_RR3.opus
</region>

<region>
hivel=127
key=D5
lovel=0
sample=Violins1_staccato_FF_D5_RR3.opus
</region>

<region>
hivel=127
key=D4
lovel=0
sample=Violins1_staccato_FF_D4_RR3.opus
</region>

<region>
hivel=127
key=D#6
lovel=0
sample=Violins1_staccato_FF_D#6_RR3.opus
</region>

<region>
hivel=127
key=D#5
lovel=0
sample=Violins1_staccato_FF_D#5_RR3.opus
</region>

<region>
hivel=127
key=D#4
lovel=0
sample=Violins1_staccato_FF_D#4_RR3.opus
</region>

<region>
hikey=E7
hivel=127
lokey=C7
lovel=0
pitch_keycenter=C7
sample=Violins1_staccato_FF_C7_RR3.opus
</region>

<region>
hivel=127
key=C6
lovel=0
sample=Violins1_staccato_FF_C6_RR3.opus
</region>

<region>
hivel=127
key=C5
lovel=0
sample=Violins1_staccato_FF_C5_RR3.opus
</region>

<region>
hivel=127
key=C4
lovel=0
sample=Violins1_staccato_FF_C4_RR3.opus
</region>

<region>
hivel=127
key=C#6
lovel=0
sample=Violins1_staccato_FF_C#6_RR3.opus
</region>

<region>
hivel=127
key=C#5
lovel=0
sample=Violins1_staccato_FF_C#5_RR3.opus
</region>

<region>
hivel=127
key=C#4
lovel=0
sample=Violins1_staccato_FF_C#4_RR3.opus
</region>

<region>
hivel=127
key=B6
lovel=0
sample=Violins1_staccato_FF_B6_RR3.opus
</region>

<region>
hivel=127
key=B5
lovel=0
sample=Violins1_staccato_FF_B5_RR3.opus
</region>

<region>
hivel=127
key=B4
lovel=0
sample=Violins1_staccato_FF_B4_RR3.opus
</region>

<region>
hivel=127
key=B3
lovel=0
sample=Violins1_staccato_FF_B3_RR3.opus
</region>

<region>
hivel=127
key=A6
lovel=0
sample=Violins1_staccato_FF_A6_RR3.opus
</region>

<region>
hivel=127
key=A5
lovel=0
sample=Violins1_staccato_FF_A5_RR3.opus
</region>

<region>
hivel=127
key=A4
lovel=0
sample=Violins1_staccato_FF_A4_RR3.opus
</region>

<region>
hivel=127
key=A3
lovel=0
sample=Violins1_staccato_FF_A3_RR3.opus
</region>

<region>
hivel=127
key=A#6
lovel=0
sample=Violins1_staccato_FF_A#6_RR3.opus
</region>

<region>
hivel=127
key=A#5
lovel=0
sample=Violins1_staccato_FF_A#5_RR3.opus
</region>

<region>
hivel=127
key=A#4
lovel=0
sample=Violins1_staccato_FF_A#4_RR3.opus
</region>

<region>
hivel=127
key=A#3
lovel=0
sample=Violins1_staccato_FF_A#3_RR3.opus
</region>
</group>

<group>
group_label=RR4_0-42
seq_length=4
seq_position=4
xf_cccurve=gain
xfin_hicc1=42
xfout_hicc1=84
xfout_locc1=42

<region>
hivel=127
key=G6
lovel=0
offset=1225
sample=Violins1_staccato_PP_G6_RR4.opus
</region>

<region>
hivel=127
key=G5
lovel=0
offset=4144
sample=Violins1_staccato_PP_G5_RR4.opus
</region>

<region>
hivel=127
key=G4
lovel=0
offset=1270
sample=Violins1_staccato_PP_G4_RR4.opus
</region>

<region>
hivel=127
key=G3
lovel=0
offset=4339
sample=Violins1_staccato_PP_G3_RR4.opus
</region>

<region>
hivel=127
key=G#6
lovel=0
offset=3539
sample=Violins1_staccato_PP_G#6_RR4.opus
</region>

<region>
hivel=127
key=G#5
lovel=0
offset=2743
sample=Violins1_staccato_PP_G#5_RR4.opus
</region>

<region>
hivel=127
key=G#4
lovel=0
offset=1960
sample=Violins1_staccato_PP_G#4_RR4.opus
</region>

<region>
hivel=127
key=G#3
lovel=0
offset=3388
sample=Violins1_staccato_PP_G#3_RR4.opus
</region>

<region>
hivel=127
key=F6
lovel=0
offset=3778
sample=Violins1_staccato_PP_F6_RR4.opus
</region>

<region>
hivel=127
key=F5
lovel=0
offset=4811
sample=Violins1_staccato_PP_F5_RR4.opus
</region>

<region>
hivel=127
key=F4
lovel=0
offset=4243
sample=Violins1_staccato_PP_F4_RR4.opus
</region>

<region>
hivel=127
key=F#6
lovel=0
offset=4311
sample=Violins1_staccato_PP_F#6_RR4.opus
</region>

<region>
hivel=127
key=F#5
lovel=0
offset=4863
sample=Violins1_staccato_PP_F#5_RR4.opus
</region>

<region>
hivel=127
key=F#4
lovel=0
offset=506
sample=Violins1_staccato_PP_F#4_RR4.opus
</region>

<region>
hivel=127
key=E6
lovel=0
offset=4907
sample=Violins1_staccato_PP_E6_RR4.opus
</region>

<region>
hivel=127
key=E5
lovel=0
offset=3089
sample=Violins1_staccato_PP_E5_RR4.opus
</region>

<region>
hivel=127
key=E4
lovel=0
offset=3204
sample=Violins1_staccato_PP_E4_RR4.opus
</region>

<region>
hivel=127
key=D6
lovel=0
offset=3979
sample=Violins1_staccato_PP_D6_RR4.opus
</region>

<region>
hivel=127
key=D5
lovel=0
offset=4251
sample=Violins1_staccato_PP_D5_RR4.opus
</region>

<region>
hivel=127
key=D4
lovel=0
offset=2771
sample=Violins1_staccato_PP_D4_RR4.opus
</region>

<region>
hivel=127
key=D#6
lovel=0
offset=3613
sample=Violins1_staccato_PP_D#6_RR4.opus
</region>

<region>
hivel=127
key=D#5
lovel=0
offset=3759
sample=Violins1_staccato_PP_D#5_RR4.opus
</region>

<region>
hivel=127
key=D#4
lovel=0
offset=3267
sample=Violins1_staccato_PP_D#4_RR4.opus
</region>

<region>
hikey=E7
hivel=127
lokey=C7
lovel=0
offset=3876
pitch_keycenter=C7
sample=Violins1_staccato_PP_C7_RR4.opus
</region>

<region>
hivel=127
key=C6
lovel=0
offset=3118
sample=Violins1_staccato_PP_C6_RR4.opus
</region>

<region>
hivel=127
key=C5
lovel=0
offset=4828
sample=Violins1_staccato_PP_C5_RR4.opus
</region>

<region>
hivel=127
key=C4
lovel=0
offset=2836
sample=Violins1_staccato_PP_C4_RR4.opus
</region>

<region>
hivel=127
key=C#6
lovel=0
offset=5945
sample=Violins1_staccato_PP_C#6_RR4.opus
</region>

<region>
hivel=127
key=C#5
lovel=0
offset=3785
sample=Violins1_staccato_PP_C#5_RR4.opus
</region>

<region>
hivel=127
key=C#4
lovel=0
offset=2802
sample=Violins1_staccato_PP_C#4_RR4.opus
</region>

<region>
hivel=127
key=B6
lovel=0
offset=3969
sample=Violins1_staccato_PP_B6_RR4.opus
</region>

<region>
hivel=127
key=B5
lovel=0
offset=3632
sample=Violins1_staccato_PP_B5_RR4.opus
</region>

<region>
hivel=127
key=B4
lovel=0
offset=2505
sample=Violins1_staccato_PP_B4_RR4.opus
</region>

<region>
hivel=127
key=B3
lovel=0
offset=1039
sample=Violins1_staccato_PP_B3_RR4.opus
</region>

<region>
hivel=127
key=A6
lovel=0
offset=3099
sample=Violins1_staccato_PP_A6_RR4.opus
</region>

<region>
hivel=127
key=A5
lovel=0
offset=3965
sample=Violins1_staccato_PP_A5_RR4.opus
</region>

<region>
hivel=127
key=A4
lovel=0
offset=2811
sample=Violins1_staccato_PP_A4_RR4.opus
</region>

<region>
hivel=127
key=A3
lovel=0
offset=2889
sample=Violins1_staccato_PP_A3_RR4.opus
</region>

<region>
hivel=127
key=A#6
lovel=0
offset=3258
sample=Violins1_staccato_PP_A#6_RR4.opus
</region>

<region>
hivel=127
key=A#5
lovel=0
offset=3866
sample=Violins1_staccato_PP_A#5_RR4.opus
</region>

<region>
hivel=127
key=A#4
lovel=0
offset=1790
sample=Violins1_staccato_PP_A#4_RR4.opus
</region>

<region>
hivel=127
key=A#3
lovel=0
offset=3014
sample=Violins1_staccato_PP_A#3_RR4.opus
</region>
</group>

<group>
group_label=RR4_43-84
seq_length=4
seq_position=4
xf_cccurve=gain
xfin_hicc1=84
xfin_locc1=43
xfout_hicc1=125
xfout_locc1=84

<region>
end=47000
hivel=127
key=G6
lovel=0
sample=Violins1_staccato_MF_G6_RR4.opus
</region>

<region>
end=47000
hivel=127
key=G5
lovel=0
sample=Violins1_staccato_MF_G5_RR4.opus
</region>

<region>
end=47000
hivel=127
key=G4
lovel=0
offset=25
sample=Violins1_staccato_MF_G4_RR4.opus
</region>

<region>
end=47000
hivel=127
key=G3
lovel=0
offset=179
sample=Violins1_staccato_MF_G3_RR4.opus
</region>

<region>
end=47000
hivel=127
key=G#6
lovel=0
sample=Violins1_staccato_MF_G#6_RR4.opus
</region>

<region>
end=47000
hivel=127
key=G#5
lovel=0
offset=662
sample=Violins1_staccato_MF_G#5_RR4.opus
</region>

<region>
end=47000
hivel=127
key=G#4
lovel=0
sample=Violins1_staccato_MF_G#4_RR4.opus
</region>

<region>
end=47000
hivel=127
key=G#3
lovel=0
sample=Violins1_staccato_MF_G#3_RR4.opus
</region>

<region>
end=47000
hivel=127
key=F6
lovel=0
offset=630
sample=Violins1_staccato_MF_F6_RR4.opus
</region>

<region>
end=47000
hivel=127
key=F5
lovel=0
offset=198
sample=Violins1_staccato_MF_F5_RR4.opus
</region>

<region>
end=47000
hivel=127
key=F4
lovel=0
offset=19
sample=Violins1_staccato_MF_F4_RR4.opus
</region>

<region>
end=47000
hivel=127
key=F#6
lovel=0
sample=Violins1_staccato_MF_F#6_RR4.opus
</region>

<region>
end=47000
hivel=127
key=F#5
lovel=0
offset=30
sample=Violins1_staccato_MF_F#5_RR4.opus
</region>

<region>
end=47000
hivel=127
key=F#4
lovel=0
sample=Violins1_staccato_MF_F#4_RR4.opus
</region>

<region>
end=47000
hivel=127
key=E6
lovel=0
sample=Violins1_staccato_MF_E6_RR4.opus
</region>

<region>
end=47000
hivel=127
key=E5
lovel=0
sample=Violins1_staccato_MF_E5_RR4.opus
</region>

<region>
end=47000
hivel=127
key=E4
lovel=0
sample=Violins1_staccato_MF_E4_RR4.opus
</region>

<region>
end=47000
hivel=127
key=D6
lovel=0
sample=Violins1_staccato_MF_D6_RR4.opus
</region>

<region>
end=47000
hivel=127
key=D5
lovel=0
offset=131
sample=Violins1_staccato_MF_D5_RR4.opus
</region>

<region>
end=47000
hivel=127
key=D4
lovel=0
sample=Violins1_staccato_MF_D4_RR4.opus
</region>

<region>
end=47000
hivel=127
key=D#6
lovel=0
offset=59
sample=Violins1_staccato_MF_D#6_RR4.opus
</region>

<region>
end=47000
hivel=127
key=D#5
lovel=0
offset=179
sample=Violins1_staccato_MF_D#5_RR4.opus
</region>

<region>
end=47000
hivel=127
key=D#4
lovel=0
sample=Violins1_staccato_MF_D#4_RR4.opus
</region>

<region>
end=47000
hikey=E7
hivel=127
lokey=C7
lovel=0
pitch_keycenter=C7
sample=Violins1_staccato_MF_C7_RR4.opus
</region>

<region>
end=47000
hivel=127
key=C6
lovel=0
offset=206
sample=Violins1_staccato_MF_C6_RR4.opus
</region>

<region>
end=47000
hivel=127
key=C5
lovel=0
sample=Violins1_staccato_MF_C5_RR4.opus
</region>

<region>
end=47000
hivel=127
key=C4
lovel=0
offset=56
sample=Violins1_staccato_MF_C4_RR4.opus
</region>

<region>
end=47000
hivel=127
key=C#6
lovel=0
offset=200
sample=Violins1_staccato_MF_C#6_RR4.opus
</region>

<region>
end=47000
hivel=127
key=C#5
lovel=0
sample=Violins1_staccato_MF_C#5_RR4.opus
</region>

<region>
end=47000
hivel=127
key=C#4
lovel=0
sample=Violins1_staccato_MF_C#4_RR4.opus
</region>

<region>
end=47000
hivel=127
key=B6
lovel=0
offset=285
sample=Violins1_staccato_MF_B6_RR4.opus
</region>

<region>
end=47000
hivel=127
key=B5
lovel=0
offset=153
sample=Violins1_staccato_MF_B5_RR4.opus
</region>

<region>
end=47000
hivel=127
key=B4
lovel=0
offset=1025
sample=Violins1_staccato_MF_B4_RR4.opus
</region>

<region>
end=47000
hivel=127
key=B3
lovel=0
offset=579
sample=Violins1_staccato_MF_B3_RR4.opus
</region>

<region>
end=47000
hivel=127
key=A6
lovel=0
offset=168
sample=Violins1_staccato_MF_A6_RR4.opus
</region>

<region>
end=47000
hivel=127
key=A5
lovel=0
offset=152
sample=Violins1_staccato_MF_A5_RR4.opus
</region>

<region>
end=47000
hivel=127
key=A4
lovel=0
sample=Violins1_staccato_MF_A4_RR4.opus
</region>

<region>
end=47000
hivel=127
key=A3
lovel=0
offset=412
sample=Violins1_staccato_MF_A3_RR4.opus
</region>

<region>
end=47000
hivel=127
key=A#6
lovel=0
offset=174
sample=Violins1_staccato_MF_A#6_RR4.opus
</region>

<region>
end=47000
hivel=127
key=A#5
lovel=0
sample=Violins1_staccato_MF_A#5_RR4.opus
</region>

<region>
end=47000
hivel=127
key=A#4
lovel=0
offset=451
sample=Violins1_staccato_MF_A#4_RR4.opus
</region>

<region>
end=47000
hivel=127
key=A#3
lovel=0
sample=Violins1_staccato_MF_A#3_RR4.opus
</region>
</group>

<group>
group_label=RR4_85-127
seq_length=4
seq_position=4
xf_cccurve=gain
xfin_hicc1=127
xfin_locc1=85
xfout_hicc1=127
xfout_locc1=127

<region>
end=47500
hivel=127
key=G6
lovel=0
sample=Violins1_staccato_FF_G6_RR4.opus
</region>

<region>
end=47500
hivel=127
key=G5
lovel=0
sample=Violins1_staccato_FF_G5_RR4.opus
</region>

<region>
end=47500
hivel=127
key=G4
lovel=0
sample=Violins1_staccato_FF_G4_RR4.opus
</region>

<region>
end=47500
hivel=127
key=G3
lovel=0
sample=Violins1_staccato_FF_G3_RR4.opus
</region>

<region>
end=47500
hivel=127
key=G#6
lovel=0
sample=Violins1_staccato_FF_G#6_RR4.opus
</region>

<region>
end=47500
hivel=127
key=G#5
lovel=0
sample=Violins1_staccato_FF_G#5_RR4.opus
</region>

<region>
end=47500
hivel=127
key=G#4
lovel=0
sample=Violins1_staccato_FF_G#4_RR4.opus
</region>

<region>
end=47500
hivel=127
key=G#3
lovel=0
sample=Violins1_staccato_FF_G#3_RR4.opus
</region>

<region>
end=47500
hivel=127
key=F6
lovel=0
sample=Violins1_staccato_FF_F6_RR4.opus
</region>

<region>
end=47500
hivel=127
key=F5
lovel=0
sample=Violins1_staccato_FF_F5_RR4.opus
</region>

<region>
end=47500
hivel=127
key=F4
lovel=0
sample=Violins1_staccato_FF_F4_RR4.opus
</region>

<region>
end=47500
hivel=127
key=F#6
lovel=0
sample=Violins1_staccato_FF_F#6_RR4.opus
</region>

<region>
end=47500
hivel=127
key=F#5
lovel=0
sample=Violins1_staccato_FF_F#5_RR4.opus
</region>

<region>
end=47500
hivel=127
key=F#4
lovel=0
sample=Violins1_staccato_FF_F#4_RR4.opus
</region>

<region>
end=47500
hivel=127
key=E6
lovel=0
sample=Violins1_staccato_FF_E6_RR4.opus
</region>

<region>
end=47500
hivel=127
key=E5
lovel=0
sample=Violins1_staccato_FF_E5_RR4.opus
</region>

<region>
end=47500
hivel=127
key=E4
lovel=0
sample=Violins1_staccato_FF_E4_RR4.opus
</region>

<region>
end=47500
hivel=127
key=D6
lovel=0
sample=Violins1_staccato_FF_D6_RR4.opus
</region>

<region>
end=47500
hivel=127
key=D5
lovel=0
sample=Violins1_staccato_FF_D5_RR4.opus
</region>

<region>
end=47500
hivel=127
key=D4
lovel=0
sample=Violins1_staccato_FF_D4_RR4.opus
</region>

<region>
end=47500
hivel=127
key=D#6
lovel=0
sample=Violins1_staccato_FF_D#6_RR4.opus
</region>

<region>
end=47500
hivel=127
key=D#5
lovel=0
sample=Violins1_staccato_FF_D#5_RR4.opus
</region>

<region>
end=47500
hivel=127
key=D#4
lovel=0
sample=Violins1_staccato_FF_D#4_RR4.opus
</region>

<region>
end=47500
hikey=E7
hivel=127
lokey=C7
lovel=0
pitch_keycenter=C7
sample=Violins1_staccato_FF_C7_RR4.opus
</region>

<region>
end=47500
hivel=127
key=C6
lovel=0
sample=Violins1_staccato_FF_C6_RR4.opus
</region>

<region>
end=47500
hivel=127
key=C5
lovel=0
sample=Violins1_staccato_FF_C5_RR4.opus
</region>

<region>
end=47500
hivel=127
key=C4
lovel=0
sample=Violins1_staccato_FF_C4_RR4.opus
</region>

<region>
end=47500
hivel=127
key=C#6
lovel=0
sample=Violins1_staccato_FF_C#6_RR4.opus
</region>

<region>
end=47500
hivel=127
key=C#5
lovel=0
sample=Violins1_staccato_FF_C#5_RR4.opus
</region>

<region>
end=47500
hivel=127
key=C#4
lovel=0
sample=Violins1_staccato_FF_C#4_RR4.opus
</region>

<region>
end=47500
hivel=127
key=B6
lovel=0
sample=Violins1_staccato_FF_B6_RR4.opus
</region>

<region>
end=47500
hivel=127
key=B5
lovel=0
sample=Violins1_staccato_FF_B5_RR4.opus
</region>

<region>
end=47500
hivel=127
key=B4
lovel=0
sample=Violins1_staccato_FF_B4_RR4.opus
</region>

<region>
end=47500
hivel=127
key=B3
lovel=0
sample=Violins1_staccato_FF_B3_RR4.opus
</region>

<region>
end=47500
hivel=127
key=A6
lovel=0
sample=Violins1_staccato_FF_A6_RR4.opus
</region>

<region>
end=47500
hivel=127
key=A5
lovel=0
sample=Violins1_staccato_FF_A5_RR4.opus
</region>

<region>
end=47500
hivel=127
key=A4
lovel=0
sample=Violins1_staccato_FF_A4_RR4.opus
</region>

<region>
end=47500
hivel=127
key=A3
lovel=0
sample=Violins1_staccato_FF_A3_RR4.opus
</region>

<region>
end=47500
hivel=127
key=A#6
lovel=0
sample=Violins1_staccato_FF_A#6_RR4.opus
</region>

<region>
end=47500
hivel=127
key=A#5
lovel=0
sample=Violins1_staccato_FF_A#5_RR4.opus
</region>

<region>
end=47500
hivel=127
key=A#4
lovel=0
sample=Violins1_staccato_FF_A#4_RR4.opus
</region>

<region>
end=47500
hivel=127
key=A#3
lovel=0
sample=Violins1_staccato_FF_A#3_RR4.opus
</region>
</group>